# xmcd CD database file
#
# Track frame offsets:
#	150
#	26760
#	55270
#	83912
#	118987
#	145090
#	177905
#	211556
#	239122
#	268832
#	292500
#	314536
#
# Disc length: 4795 seconds
#
# Revision: 0
# Processed by: cddbd v1.5PL3 Copyright (c) Steve Scherf et al.
# Submitted via: CDex 1.51
#
DISCID=af12b90c
DTITLE=Harris, Stefon and Blackout - Evolution
DYEAR=2004
DGENRE=Jazz
TTITLE0=Nothing Personal
TTITLE1=For Him, For Her
TTITLE2=Until
TTITLE3=Red-Bone, Netti-Bone
TTITLE4=A Touch Of Grace
TTITLE5=Summertime
TTITLE6=Blackout
TTITLE7=The Lost Ones
TTITLE8=King Tut's Strut
TTITLE9=Message To Mankind
TTITLE10=Montara
TTITLE11=Data
EXTD=YEAR: 2004
EXTT0=
EXTT1=
EXTT2=
EXTT3=
EXTT4=
EXTT5=
EXTT6=
EXTT7=
EXTT8=
EXTT9=
EXTT10=
EXTT11=
PLAYORDER=
